<?xml version="1.0"?>
<svg version="1.1" xmlns="http://www.w3.org/2000/svg" width="200" height="40" style=""><path fill="#06968a" d="M15.8935546875,23.4130859375q0-0.146484375,0.22705078125-0.2490234375t0.5419921875-0.146484375t0.6005859375-0.0732421875t0.43212890625-0.029296875q0.05859375-0.3955078125,0.16845703125-1.0693359375t0.27099609375-1.44287109375t0.40283203125-1.54541015625t0.5859375-1.40625t0.81298828125-1.03271484375t1.0986328125-0.40283203125l-0.029296875,0q0.205078125-0.029296875,0.40283203125-0.0439453125t0.40283203125-0.0146484375q0.4833984375,0,1.04736328125,0.1904296875t1.04736328125,0.53466796875t0.81298828125,0.82763671875t0.32958984375,1.025390625q0,0.4248046875-0.21240234375,0.91552734375t-0.73974609375,0.49072265625q-0.17578125,0-0.35888671875-0.087890625t-0.34423828125-0.1904296875q0.05859375-0.3369140625,0.05859375-0.673828125q0-0.17578125-0.0146484375-0.3369140625q-0.0439453125-0.5126953125-0.2197265625-0.90087890625t-0.50537109375-0.615234375t-0.78369140625-0.16845703125q-0.6005859375,0.087890625-0.90087890625,0.732421875t-0.41748046875,1.53076171875t-0.146484375,1.8017578125t-0.1171875,1.48681640625q0.6884765625,0.05859375,1.16455078125,0.05859375l1.19384765625,0q0.1171875,0,0.40283203125,0.0146484375t0.556640625,0.05859375t0.4833984375,0.15380859375t0.21240234375,0.28564453125q0,0.146484375-0.1171875,0.25634765625t-0.28564453125,0.15380859375t-0.3515625,0.05859375t-0.30029296875,0.0146484375q-0.5126953125,0-0.87158203125-0.0439453125t-0.6884765625-0.08056640625t-0.6884765625-0.03662109375t-0.84228515625,0.1025390625q-0.146484375,1.6259765625-0.234375,3.22265625t-0.087890625,3.22265625q0,2.548828125,0.1611328125,4.9951171875t0.5859375,4.9658203125q0.05859375,0.234375,0.1025390625,0.53466796875t0.0439453125,0.57861328125q0,0.263671875-0.1611328125,0.43212890625t-0.40283203125,0.24169921875t-0.498046875,0.1025390625t-0.46142578125,0.029296875q-0.8349609375,0-1.171875-0.25634765625t-0.4833984375-1.03271484375q-0.3662109375-2.0654296875-0.46875-4.16748046875t-0.1025390625-4.24072265625q0-2.0947265625,0.15380859375-4.18212890625t0.38818359375-4.15283203125q-0.1171875,0-0.40283203125,0.0146484375t-0.5712890625,0t-0.498046875-0.1025390625t-0.21240234375-0.3076171875z M26.699267578125,29.2138671875q0-1.8310546875,0.5126953125-3.662109375t1.54541015625-3.27392578125t2.578125-2.34375t3.62548828125-0.90087890625q1.6552734375,0,2.95166015625,0.68115234375t2.2265625,1.787109375t1.42822265625,2.5634765625t0.498046875,2.98095703125q0,0.8056640625-0.087890625,1.7724609375t-0.41748046875,1.787109375t-0.95947265625,1.376953125t-1.7138671875,0.556640625q-1.142578125,0-2.05810546875-0.6005859375t-1.23779296875-1.7431640625q-0.234375,0.5126953125-0.5712890625,1.0107421875t-0.76904296875,0.88623046875t-0.95947265625,0.615234375t-1.1279296875,0.22705078125q-0.6591796875,0-1.07666015625-0.22705078125t-0.673828125-0.615234375t-0.34423828125-0.90087890625t-0.087890625-1.083984375q0-0.99609375,0.17578125-2.17529296875t0.64453125-2.21923828125t1.2744140625-1.728515625t2.0654296875-0.6884765625q0.4248046875,0,0.99609375,0.10986328125t1.07666015625,0.34423828125t0.87158203125,0.6298828125t0.3662109375,0.9228515625q0,0.234375-0.05126953125,0.4541015625t-0.25634765625,0.3662109375q0.087890625,0.3955078125,0.16845703125,1.2451171875t0.22705078125,1.72119140625t0.43212890625,1.54541015625t0.79833984375,0.703125q0.4541015625,0.029296875,0.703125-0.5712890625t0.35888671875-1.376953125t0.12451171875-1.51611328125t0.0146484375-1.00341796875q0-0.99609375-0.30029296875-2.17529296875t-0.91552734375-2.23388671875t-1.53076171875-1.7578125t-2.11669921875-0.703125q-1.5234375,0-2.6513671875,0.79833984375t-1.88232421875,2.07275390625t-1.11328125,2.90771484375t-0.35888671875,3.27392578125q0,1.0546875,0.21240234375,2.45361328125t0.79833984375,2.64404296875t1.61865234375,2.109375t2.71728515625,0.8642578125q1.7138671875,0,2.9736328125-0.8642578125t2.0654296875-2.40234375q0.205078125-0.3662109375,0.49072265625-0.46875t0.68115234375-0.1025390625q0.087890625,0,0.30029296875,0.029296875t0.40283203125,0.09521484375t0.34423828125,0.16845703125t0.15380859375,0.2490234375q0,1.11328125-0.82763671875,1.95556640625t-1.99951171875,1.4208984375t-2.4755859375,0.87890625t-2.2265625,0.30029296875q-1.9775390625,0-3.42041015625-0.7763671875t-2.373046875-2.05078125t-1.38427734375-2.92236328125t-0.4541015625-3.42041015625z M31.972705078125,29.54345703125q-0.0146484375,0.78369140625,0.1171875,1.259765625t0.439453125,0.35888671875q0.7470703125-0.263671875,1.17919921875-0.93017578125t0.6884765625-1.48681640625t0.439453125-1.70654296875t0.44677734375-1.63330078125q0.17578125-0.205078125,0.1611328125-0.43212890625t-0.146484375-0.3955078125t-0.35888671875-0.27099609375t-0.40283203125-0.1025390625q-0.6298828125,0-1.11328125,0.53466796875t-0.79833984375,1.34765625t-0.47607421875,1.7431640625t-0.17578125,1.7138671875z M45.06357421875,25.4345703125q0-0.6005859375,0.21240234375-1.0107421875t0.90087890625-0.41015625q0.263671875,0,0.6591796875,0.08056640625t0.4541015625,0.40283203125q0.146484375,0.8642578125,0.1611328125,1.875t0.1025390625,1.904296875q0.3369140625-0.6591796875,0.8642578125-1.4208984375t1.201171875-1.40625t1.46484375-1.0693359375t1.611328125-0.4248046875q0.05859375,0,0.2197265625,0.0439453125t0.30029296875,0.12451171875t0.16845703125,0.18310546875t-0.1611328125,0.1904296875q-0.05859375,0.17578125-0.2490234375,0.21240234375t-0.3369140625,0.03662109375q-0.087890625,0-0.2783203125-0.0732421875q-1.083984375,0.5712890625-1.845703125,1.552734375t-1.2451171875,2.17529296875t-0.703125,2.51953125t-0.2197265625,2.58544921875q0,0.6298828125-0.28564453125,0.76171875t-0.91552734375,0.1318359375q-0.3369140625,0-0.71044921875-0.0732421875t-0.52001953125-0.46875q-0.263671875-0.8349609375-0.43212890625-1.9189453125t-0.25634765625-2.23388671875t-0.12451171875-2.26318359375t-0.03662109375-2.0068359375z M55.510400390625,25.86669921875q-0.03662109375-0.49072265625,0.05859375-0.90087890625t0.380859375-0.66650390625t0.91552734375-0.25634765625q0.146484375,0,0.35888671875,0.03662109375t0.41748046875,0.09521484375t0.34423828125,0.17578125t0.13916015625,0.322265625l0,1.6552734375q0.5712890625-0.6591796875,1.2451171875-0.94482421875t1.5380859375-0.28564453125q0.6591796875,0,1.3037109375,0.30029296875t1.2158203125,0.79833984375t0.98876953125,1.0986328125t0.60791015625,1.201171875q0.1171875-0.5419921875,0.263671875-1.32568359375t0.43212890625-1.50146484375t0.75439453125-1.23046875t1.2451171875-0.5126953125q0.8349609375,0,1.40625,0.6005859375t0.93017578125,1.56005859375t0.5419921875,2.14599609375t0.27099609375,2.34375t0.087890625,2.16064453125l0,1.57470703125q0,0.17578125-0.1318359375,0.28564453125t-0.32958984375,0.16845703125t-0.41015625,0.0732421875t-0.32958984375,0.0146484375q-0.4541015625,0-0.82763671875-0.13916015625t-0.37353515625-0.71044921875l0-1.318359375t-0.029296875-1.70654296875t-0.1025390625-1.8310546875t-0.1904296875-1.66259765625t-0.30029296875-1.201171875t-0.44677734375-0.46875q-0.3662109375,0-0.52734375,0.41015625t-0.27099609375,1.0400390625t-0.16845703125,1.3330078125t-0.1611328125,1.3330078125t-0.32958984375,1.03271484375t-0.62255859375,0.40283203125q-0.4248046875,0-0.7470703125-0.40283203125t-0.63720703125-1.00341796875t-0.6298828125-1.2890625t-0.69580078125-1.2890625q-0.380859375-0.615234375-0.8203125-0.99609375q-0.3955078125-0.3662109375-0.8935546875-0.3515625l-0.0732421875,0q-0.6591796875,0.029296875-1.03271484375,0.47607421875t-0.5712890625,1.09130859375t-0.24169921875,1.38427734375t-0.0439453125,1.29638671875q0,0.52734375,0.087890625,1.23046875q0.05859375,0.46875,0.05859375,0.8935546875q0,0.2197265625-0.0146484375,0.4248046875q-0.0439453125,0.615234375-0.32958984375,1.03271484375t-1.06201171875,0.41748046875q-0.29296875,0-0.732421875-0.05859375t-0.5859375-0.3955078125q-0.3369140625-0.6005859375-0.5126953125-1.51611328125t-0.263671875-1.8896484375t-0.1025390625-1.93359375t-0.0146484375-1.64794921875q0-0.4833984375-0.03662109375-0.97412109375z M73.9845703125,29.5361328125q0-0.99609375,0.27099609375-1.9189453125t0.81298828125-1.64794921875t1.35498046875-1.1572265625t1.88232421875-0.43212890625q0.6591796875,0,1.45751953125,0.19775390625t1.50146484375,0.5859375t1.171875,0.98876953125t0.46875,1.376953125q0,0.3662109375-0.12451171875,0.556640625t-0.50537109375,0.1904296875l-0.1611328125-0.029296875q0.4248046875,1.142578125,0.732421875,2.34375t0.6005859375,2.40234375q0.1171875,0.234375,0.17578125,0.41748046875t0.05859375,0.35888671875q0,0.234375-0.1318359375,0.38818359375t-0.34423828125,0.22705078125t-0.439453125,0.1025390625t-0.40283203125,0.029296875q-0.6298828125,0-0.94482421875-0.2197265625t-0.4541015625-0.6005859375t-0.16845703125-0.85693359375t-0.1171875-0.95947265625q-0.17578125,0.5712890625-0.46142578125,1.11328125t-0.673828125,0.97412109375t-0.91552734375,0.6884765625t-1.1865234375,0.25634765625q-0.966796875,0-1.6259765625-0.556640625t-1.06201171875-1.36962890625t-0.5859375-1.73583984375t-0.18310546875-1.7138671875z M76.0646484375,29.3310546875q0,0.5419921875,0.0732421875,1.142578125t0.24169921875,1.1865234375t0.43212890625,1.10595703125t0.6591796875,0.91552734375q0.7177734375-0.7763671875,1.06201171875-1.8896484375t0.615234375-2.14599609375t0.615234375-1.7724609375t1.06201171875-0.73974609375q0.4541015625,0,0.76171875,0.1611328125q-0.146484375-0.3662109375-0.4833984375-0.71044921875t-0.75439453125-0.6298828125t-0.8642578125-0.46875t-0.84228515625-0.18310546875q-0.1171875,0-0.27099609375,0.03662109375t-0.24169921875,0.00732421875q-0.6005859375,0.17578125-0.98876953125,0.60791015625t-0.6298828125,1.01806640625t-0.34423828125,1.201171875t-0.1025390625,1.1572265625z M86.679931640625,35.4833984375l0.3076171875-0.3662109375q-0.05859375-2.4609375-0.1318359375-4.9072265625t-0.0732421875-4.86328125q0-3.0029296875,0.35888671875-5.80810546875t0.71044921875-5.74951171875q0.029296875-0.17578125,0.16845703125-0.28564453125t0.34423828125-0.18310546875t0.41748046875-0.1025390625t0.38818359375-0.029296875q0.234375,0,0.5859375,0.087890625t0.703125,0.5126953125q0,0.146484375,0.02197265625,0.25634765625t0.02197265625,0.25634765625q0,1.11328125-0.30029296875,2.3876953125t-0.40283203125,2.4462890625q-0.1171875,1.435546875-0.1611328125,2.841796875t-0.0439453125,2.8564453125l0.029296875,1.2890625q0.29296875-0.3662109375,0.8349609375-0.9375t1.171875-1.10595703125t1.259765625-0.91552734375t1.142578125-0.380859375q0.7763671875,0,1.07666015625,0.439453125t0.30029296875,1.1572265625q0,0.6591796875-0.28564453125,1.376953125t-0.7470703125,1.39892578125t-1.04736328125,1.22314453125t-1.1572265625,0.8056640625q0.7763671875,0.966796875,1.58935546875,1.845703125t1.77978515625,1.6552734375l0,0.3369140625q-0.029296875,0.146484375-0.18310546875,0.2197265625t-0.3369140625,0.1171875t-0.35888671875,0.06591796875t-0.29296875,0.02197265625q-0.7177734375,0-1.38427734375-0.4248046875t-1.2451171875-1.0400390625t-1.09130859375-1.3037109375t-0.9375-1.201171875q0.087890625,1.6845703125,0.19775390625,3.36181640625t0.10986328125,3.36181640625q0,0.205078125-0.18310546875,0.34423828125t-0.4248046875,0.21240234375t-0.49072265625,0.1025390625t-0.41015625,0.029296875q-0.8642578125,0-1.22314453125-0.31494140625t-0.60791015625-1.09130859375z M89.682861328125,28.583984375q0.3662109375,0,0.87158203125-0.31494140625t1.04736328125-0.78369140625t1.0107421875-0.98876953125t0.75439453125-0.98876953125t0.28564453125-0.75439453125t-0.3955078125-0.25634765625q-0.146484375,0-0.6005859375,0.4248046875t-1.0107421875,1.0400390625t-1.11328125,1.3330078125t-0.849609375,1.2890625z"/><path fill="#" d=""/></svg>
